<svg
  viewBox="0 0 38.141 13.127"
>
  <g transform="translate(-121.61 -176.02)">
    <g transform="translate(.90518 47.522)">
      <path
        d="m125.29 141.35c1.4252-0.84897 3.0466 1.1306 4.3171-0.24318 0.77981-0.99588 2.7389-2.9128 0.82316-3.7183-1.1751-1.145-0.95492-3.1853 0.36932-4.1251 0.6818-0.53065-0.86954-1.2246-1.3328-1.4199-1.4657-0.72196-2.8581 0.91667-4.2817 0.13435-1.6609-0.75026-3.677 0.28967-4.2068 1.9888-0.81356 2.5697 0.29703 5.4735 2.1695 7.2964 0.59422 0.53762 1.4732 0.36393 2.1422 0.087zm16.11-1.1611c0.0672-0.34704-0.13997-1.3563 0.11409-1.2521 1.1821 1.2998 3.6048 0.41823 3.8065-1.2995 0.34206-1.3877-0.15-3.4136-1.8338-3.5561-0.79191-0.4529-1.9182 0.73452-2.1714 0.65718 0.20898-0.70995-0.31686-0.68508-0.86904-0.63387-0.14529 0.35952-0.0208 0.98882-0.0623 1.4521v5.9985c0.38404-0.0891 1.2178 0.2715 1.016-0.40337v-0.96284zm0.97366-1.5545c-1.2386-0.51539-1.2423-2.4152-0.4566-3.3056 0.90146-1.0686 2.5093-0.0444 2.4373 1.1871 0.19544 1.1349-0.68028 2.6206-1.9807 2.1185zm4.953 1.5537c0.0645-0.34501-0.13443-1.3618 0.10968-1.2487 1.1273 1.2485 3.4666 0.47269 3.7603-1.1603 0.41597-1.425-0.0791-3.47-1.7684-3.7204-0.78771-0.45563-1.9256 0.76759-2.1863 0.6796 0.20898-0.70995-0.31686-0.68508-0.86904-0.63387-0.14532 0.3595-0.0208 0.98882-0.0623 1.4521v5.9985c0.38404-0.0891 1.2178 0.2715 1.016-0.40337v-0.96366zm0.87344-1.5915c-1.256-0.67587-1.1852-2.9529 0.0986-3.5873 1.5957-0.64418 2.3923 1.511 1.8406 2.71-0.28589 0.72678-1.184 1.3092-1.9393 0.87728zm9.8668 0.8039c1.1008-0.15402 0.081-1.3808-0.65093-0.6951-0.97124 0.55743-2.8507-1.1585-1.9736-1.7222h3.3986c0.12698-1.2086-0.32854-2.7156-1.7071-2.9202-1.6106-0.37605-3.1097 1.2166-2.9035 2.7932-0.20385 1.4623 1.0994 2.8401 2.5823 2.662 0.42013 6e-3 0.84497-0.0153 1.2542-0.11769zm-2.8188-3.3698c0.17592-1.5867 2.6422-1.5832 2.619 0.0808-0.1782 0.25733-0.93078 0.0358-1.3289 0.10974-0.37701-0.0932-1.2683 0.19281-1.3013-0.15415zm-20.219 2.2437c0.24091-0.36173 0.11508-1.2321 0.69631-1.1218h2.162c0.25362 0.74789 0.50724 1.4958 0.76087 2.2437 0.29255-0.10436 1.2759 0.30809 1.0567-0.17916-0.81088-2.367-1.6227-4.7337-2.429-7.1023-0.41007 0.11393-1.163-0.25056-1.3109 0.2292-0.78721 2.3399-1.6026 4.6707-2.3545 7.0222 0.62718 0.19255 1.2576 0.0927 1.2743-0.65887 0.0481-0.1443 0.0961-0.2886 0.14418-0.4329zm0.63468-2.0743c0.37804-0.75012 0.55703-2.4283 1.0324-2.659 0.3494 0.90921 0.63012 1.8432 0.94468 2.7649-0.64913-0.0401-1.3852 0.0988-1.977-0.10584zm17.589-0.61383v-3.8523c-0.38404 0.0891-1.2178-0.2715-1.016 0.40337v7.3013c0.38404-0.0891 1.2178 0.2715 1.016-0.40337v-3.449zm-26.094-4.2251c1.045-0.54104 1.5542-1.7347 1.566-2.8683-1.5742 0.11251-2.8323 1.55-2.7554 3.1213 0.23979 0.13405 0.88702-0.12417 1.1894-0.25301z"
        
      />
      <path
        d="m123.49 141.49c-1.5044-1.0617-2.3354-2.8989-2.6907-4.6656-0.4015-1.858 0.21711-4.2149 2.165-4.9216 1.343-0.70596 2.6601 0.75961 3.9644 0.13334 1.415-0.72308 3.2043-0.28398 4.1644 0.96024-1.0824 0.80046-1.8774 2.2541-1.2094 3.5673 0.28391 1.1035 2.2607 1.3973 1.0636 2.671-0.61749 1.3686-2.0208 3.0634-3.6667 2.1168-1.2816-0.75449-2.5114 0.66434-3.7905 0.13852zm16.891-3.6569v-3.7253c0.49437 2e-3 1.1592-0.16566 0.93133 0.55896 0.12573 0.40683 1.2603-1.0953 2.0064-0.59658 1.6916-8e-3 2.39 2.065 2.0129 3.4658-0.1347 1.7375-2.5131 2.717-3.7621 1.4625-0.36953-0.40746-0.0819 0.77163-0.1725 1.0376v1.5223c-0.38404-0.0891-1.2178 0.2715-1.016-0.40337v-3.322zm3.0057 0.77131c1.4648-0.66479 1.3004-3.5087-0.41371-3.7195-1.519-9e-3 -1.8828 1.9479-1.3677 3.0687 0.31764 0.60465 1.1429 1.0221 1.7814 0.65075zm2.921-0.77131v-3.7253c0.49437 2e-3 1.1592-0.16567 0.93134 0.55896 0.15505 0.36604 1.4012-1.1563 2.1863-0.60469 2.0068 0.34331 2.3691 3.0837 1.3822 4.5489-0.74384 1.1149-2.6458 1.3202-3.4839 0.21345v2.7341c-0.38404-0.0891-1.2178 0.2715-1.016-0.40337v-3.322zm3.0155 0.76935c1.3016-0.65175 1.3129-2.9157 0.0387-3.595-1.738-0.63757-2.5373 1.8054-1.7804 3.0439 0.33128 0.56816 1.1406 0.90077 1.7417 0.5511zm6.3463 0.75314c-1.51-0.58143-1.7536-2.5484-1.1976-3.8769 0.63168-1.6962 3.3201-2.0349 4.1154-0.29839 0.12242 0.476 0.72206 2.0209-0.23299 1.8062h-3.1566c-0.13309 1.8626 2.0739 1.8401 3.2147 1.6298 0.71954 1.3008-2.1181 0.87822-2.743 0.73939zm2.1512-3.479c-0.24063-1.6523-2.5968-1.1556-2.6344 0.34782h2.698l-0.0636-0.34782zm-24.213 3.4928c0.77737-2.428 1.6193-4.835 2.4322-7.2514 0.41023 0.11387 1.1627-0.25044 1.3112 0.22909 0.8064 2.3685 1.6186 4.7351 2.4293 7.1021-0.37371-0.13374-1.1014 0.20411-1.2128-0.279-0.22772-0.67149-0.45543-1.343-0.68314-2.0145h-2.4847c-0.24907 0.74789-0.49814 1.4958-0.74721 2.2437-0.34575-4e-3 -0.71263 0.0917-1.0449-0.0301zm3.5209-4.5931c-0.18704-0.71048-0.60725-2.0032-0.81186-0.57083-0.28888 0.98129-1.2912 2.5972 0.55508 2.1036 0.67006 0.12456 0.903-0.0662 0.53717-0.68902-0.0935-0.28125-0.18693-0.56249-0.28039-0.84374zm15.106 0.81309v-3.8523c0.38404 0.0891 1.2178-0.2715 1.016 0.40337v7.3013c-0.38404-0.0891-1.2178 0.2715-1.016-0.40337v-3.449zm-26.228-4.4546c0.0953-1.4025 1.3455-2.5231 2.7166-2.6388 0.0491 1.5648-1.1134 3.1577-2.7603 3.1828 0.0146-0.18135 0.0291-0.3627 0.0437-0.54405z"
        
      />
    </g>
  </g>
</svg>
