<svg
  viewBox="0 0 38.151 7.8994"
>
  <g transform="translate(-121.27 -178.31)">
    <path
      d="m124.61 186.08c-1.3133-0.34491-2.5634-1.3008-3.0919-2.3642-0.23417-0.47119-0.25246-0.5756-0.25246-1.4411 0-0.87991 0.0156-0.9647 0.2727-1.487 0.30142-0.61228 1.0758-1.4209 1.717-1.7928 0.20955-0.12155 0.6858-0.3262 1.0583-0.45478 0.61089-0.21085 0.78945-0.2336 1.8203-0.23189 1.0071 2e-3 1.2244 0.0287 1.827 0.22734 0.82573 0.27218 1.5446 0.72475 2.0984 1.321 0.38516 0.41474 0.40152 0.45023 0.254 0.55101-0.54015 0.36902-3.0949 1.8386-3.1319 1.8016-0.0247-0.0247 0.3553-0.65578 0.84449-1.4023l0.88943-1.3574-0.29434-0.17367c-1.2048-0.71085-2.631-0.51433-3.7163 0.51206-1.7435 1.6489-1.3116 4.3527 0.86662 5.425 0.53126 0.26154 0.62948 0.28098 1.4192 0.28098 0.76708 0 0.89696-0.0238 1.3544-0.24843 0.27829-0.13664 0.73219-0.46841 1.0087-0.73728 0.27648-0.26886 0.53456-0.46914 0.57351-0.44507 0.039 0.0241 0.0708 0.1523 0.0708 0.28493 0 0.5097-1.354 1.4211-2.579 1.7358-0.64884 0.16674-2.368 0.16459-3.009-4e-3zm22.93-0.0637c-2.5392-1.0689-2.8222-4.5026-0.49289-5.9808 1.6431-1.0428 3.889-0.41368 4.7766 1.338 0.83995 1.6576 0.14729 3.7328-1.518 4.548-0.44655 0.2186-0.61281 0.25108-1.3959 0.2727-0.78028 0.0215-0.9478-2.6e-4 -1.3698-0.17785zm2.3056-0.36936c0.51759-0.30574 0.51088-0.39427-0.22189-2.9308-0.55531-1.9222-0.70481-2.3426-0.90516-2.5457-0.20361-0.2064-0.28615-0.23578-0.54453-0.19385-0.31773 0.0516-0.6676 0.31734-0.74699 0.56745-0.0602 0.18973 1.2947 4.7315 1.4733 4.9385 0.27239 0.31576 0.59426 0.37172 0.94528 0.16437zm-17.879 0.30255c-1.555-0.54263-2.0097-2.2036-0.87572-3.1992 0.58716-0.51554 0.98376-0.64352 1.9861-0.6409 0.80526 2e-3 0.93156 0.0245 1.3408 0.23798 0.39001 0.20341 0.44575 0.21467 0.40734 0.0823-0.0245-0.0843-0.14626-0.48574-0.27066-0.89204l-0.22617-0.73873-2.6484-0.0466 0.55033-0.26502c1.8294-0.88094 2.9318-1.0969 3.6214-0.70933 0.60551 0.34031 0.73546 0.62783 1.5938 3.5262 0.43791 1.4787 0.79621 2.7202 0.79621 2.7589 0 0.0387-0.52237 0.0597-1.1608 0.0468l-1.1608-0.0236-0.15261-0.508c-0.23944-0.79701-0.21824-0.77543-0.45143-0.45935-0.65153 0.8831-2.1405 1.2523-3.3494 0.83043zm2.6174-0.7017c0.73932-0.38467 0.94205-1.3218 0.41101-1.8999-0.72431-0.78849-1.9332-0.45548-2.1286 0.58637-0.17116 0.91233 0.90581 1.7359 1.7176 1.3136zm4.335-1.786v-2.667h-0.68233c-0.3924 0-0.66193-0.033-0.63432-0.0777 0.0661-0.10692 1.2662-0.74984 1.7784-0.95266 0.80287-0.31797 1.4564-0.15819 1.7192 0.42033 0.0784 0.17252 0.14839 0.32481 0.15563 0.33844 7e-3 0.0136 0.42747-0.18474 0.93384-0.44081 1.244-0.6291 1.7271-0.66016 2.243-0.14425l0.32871 0.3287v5.8619h-2.3707v-2.4817c0-2.3805-7e-3 -2.4893-0.17263-2.667-0.21121-0.22671-0.59682-0.24162-0.78791-0.0305-0.12376 0.13675-0.14012 0.44821-0.14012 2.667v2.5122h-2.3707zm14.563 0v-2.667h-0.635c-0.34925 0-0.635-0.0325-0.635-0.0723 0-0.0397 0.46672-0.30988 1.0372-0.60029 0.8553-0.43544 1.1099-0.52793 1.452-0.52746 0.48118 6.8e-4 0.78336 0.18238 0.99589 0.5989 0.0774 0.15171 0.15717 0.29226 0.17724 0.31232 0.0201 0.0201 0.30088-0.10885 0.62404-0.28648 1.4936-0.82102 2.1199-0.83721 2.6934-0.0696 0.16702 0.22355 0.17567 0.35793 0.19992 3.1063l0.0254 2.8726h-2.4637v-2.4977c0-2.3848-8e-3 -2.5053-0.16933-2.667-0.21156-0.21156-0.60634-0.21879-0.79122-0.0145-0.12375 0.13675-0.14012 0.44821-0.14012 2.667v2.5122h-2.3707z"
    />
  </g>
</svg>
