<svg
  viewBox="0 0 38.061 10.896"
>
  <g transform="translate(-127.45 -153.05)">
    <path
      d="m129.63 163.83c-0.91056-0.22065-1.5893-0.69974-1.9258-1.3594-0.30391-0.59575-0.34579-1.8137-0.0862-2.5064 0.23083-0.61597 0.78445-1.193 1.4224-1.4826 0.41681-0.18921 0.63287-0.22519 1.548-0.25779 0.90251-0.0322 1.1633-0.0105 1.7224 0.14287 1.1859 0.32535 1.3419 0.4979 0.98266 1.0871-0.19529 0.3203-0.34421 0.3385-0.86928 0.10624-0.603-0.26674-1.5568-0.38552-2.1458-0.26724-0.68938 0.13845-1.1024 0.43502-1.3518 0.97078-0.52863 1.1354 0.0356 2.3011 1.2608 2.6048 0.4476 0.11094 1.4995 0.0632 2.0297-0.0921l0.32157-0.0942-0.0504-0.96346-0.82885-0.0423c-0.60999-0.0312-0.84998-0.0759-0.90887-0.16934-0.10528-0.16709-0.10336-0.3957 5e-3 -0.59823 0.081-0.15139 0.18958-0.16377 1.4364-0.16377 1.2468 0 1.3553 0.0124 1.4364 0.16377 0.0482 0.0901 0.0876 0.61833 0.0876 1.1739 0 0.8739-0.0223 1.0385-0.16539 1.2204-0.41923 0.53297-2.6554 0.83355-3.9205 0.52699zm4.6786-0.0643c0-0.12225 2.4189-5.1983 2.5591-5.3703 0.0475-0.0582 0.26745-0.10583 0.48888-0.10583s0.44174 0.0476 0.48958 0.10583c0.0478 0.0582 0.68576 1.2804 1.4176 2.716 0.8577 1.6825 1.3015 2.6393 1.2487 2.6921-0.0451 0.0451-0.36342 0.0706-0.70743 0.0568l-0.62547-0.0251-0.19923-0.36176-0.19922-0.36176-2.9877 0.0462-0.1984 0.35984-0.19841 0.35983h-0.54399c-0.39448 0-0.54399-0.0308-0.54399-0.1119zm3.9374-1.582c0.0535-0.0865-0.87591-2.2013-0.96685-2.2-0.0871 1e-3 -1.0275 2.1252-0.97703 2.2068 0.0663 0.10729 1.8773 0.10097 1.9439-7e-3zm3.1299 1.5912c-0.0233-0.0608-0.0323-1.3103-0.02-2.7767l0.0224-2.6662h2.159c2.0487 0 2.1763 9e-3 2.4977 0.18226 0.63157 0.3399 0.889 0.75532 0.889 1.4346 0 0.70616-0.39272 1.2538-1.0562 1.4727-0.16416 0.0542-0.29808 0.14318-0.29759 0.19777 5e-4 0.0546 0.30528 0.53409 0.67733 1.0655 0.37204 0.53145 0.67645 1.0172 0.67645 1.0795 0 0.0842-0.15718 0.1129-0.61384 0.11193-0.33761-6.7e-4 -0.65564-0.0293-0.70674-0.0635s-0.39037-0.4813-0.75394-0.99353c-0.36356-0.51224-0.71956-0.97896-0.7911-1.0372-0.0792-0.0644-0.38763-0.10583-0.7887-0.10583h-0.65863l-0.0474 2.159-0.57266 0.0251c-0.41165 0.018-0.58458-6e-3 -0.61507-0.0854zm3.7606-3.163c0.59805-0.23929 0.65191-0.8908 0.0974-1.1776-0.20581-0.10643-0.49362-0.12868-1.4218-0.10989l-1.1638 0.0236-0.0253 0.58427c-0.0139 0.32135-6e-3 0.63567 0.0185 0.6985 0.0668 0.17407 2.0503 0.15907 2.495-0.0189zm3.1118 3.079c-0.0914-0.3413-0.0614-5.0605 0.0333-5.2375 0.0745-0.13925 0.18139-0.16377 0.71362-0.16377 0.41617 0 0.66347 0.0386 0.73785 0.11504 0.0615 0.0633 0.47384 0.78648 0.91622 1.6071 0.44238 0.82065 0.82338 1.492 0.84667 1.4918 0.0233-9e-5 0.36363-0.58046 0.75633-1.2896s0.80276-1.4323 0.91123-1.6069l0.19723-0.3175h0.67465c0.62944 0 0.67778 0.0128 0.72114 0.1905 0.0256 0.10477 0.0358 1.3526 0.0228 2.7728l-0.0237 2.5823-0.5715 0.025c-0.31432 0.0138-0.57907 0.0138-0.58832 0-9e-3 -0.0138-0.0378-0.82269-0.0635-1.7976l-0.0467-1.7726-0.92522 1.7091c-0.74435 1.3749-0.95953 1.7091-1.1007 1.7091-0.14158 0-0.35537-0.33573-1.1068-1.7381l-0.9313-1.7381-0.0846 3.6031-0.51831 0.0249c-0.47889 0.023-0.52227 0.0101-0.57035-0.16933zm8.3676 0.084c-0.0233-0.0608-0.0323-1.3103-0.02-2.7767l0.0224-2.6662h1.1853v5.5033l-0.57266 0.0251c-0.41165 0.018-0.58459-6e-3 -0.61507-0.0854zm3.0595-0.0312c-0.0283-0.0736-0.0514-1.2707-0.0514-2.6601s0.0231-2.5864 0.0514-2.6601c0.0399-0.10401 0.18039-0.13392 0.62895-0.13392h0.57755l1.2589 1.2912c0.69238 0.71014 1.4754 1.5198 1.74 1.7992l0.48115 0.508 2e-3 -1.7041c1e-3 -1.3666 0.0255-1.7239 0.12183-1.8038 0.0692-0.0574 0.31148-0.0888 0.5715-0.0739l0.45137 0.0258v5.5033l-0.37421 0.0267c-0.20581 0.0147-0.45356 7e-3 -0.55055-0.0175-0.097-0.0243-0.96682-0.86376-1.933-1.8654l-1.7566-1.8211v1.7259c0 0.94923-0.0231 1.7862-0.0514 1.8598-0.0393 0.10247-0.1764 0.13393-0.5836 0.13393-0.40721 0-0.54429-0.0315-0.58361-0.13393zm0.89878-6.8559c-0.1035-0.0725-0.18817-0.20303-0.18817-0.29008 0-0.168 1.8246-3.3856 1.9818-3.4947 0.0509-0.0353 0.18559-0.0544 0.2993-0.0423 0.1724 0.0183 0.36545 0.29619 1.1621 1.6729 0.97854 1.6911 1.1027 2.0341 0.79573 2.1984-0.0986 0.0528-0.90023 0.0877-2.0132 0.0877-1.5368 0-1.8812-0.0223-2.0376-0.1318z"
    />
  </g>
</svg>
