<svg
  viewBox="0 0 38.061 10.896"
>
  <g transform="translate(-127.45 -153.05)">
    <path
      d="m150.98 184.09v-1.8627h4.7413v3.7253h-4.7413zm5.6727 0v-1.8627h4.826v3.7253h-4.826zm5.6727 0v-1.8627h4.826v3.7253h-4.826zm5.842 0v-1.8627h4.7413v3.7253h-4.7413zm-31.877-3.7571c-0.55414-0.14105-1.0987-0.42672-1.2644-0.66327-0.10953-0.15638-0.13259-0.4815-0.13259-1.8694 0-0.97836 0.036-1.7474 0.0862-1.8412 0.13179-0.24626 0.74381-0.56795 1.3543-0.71182 0.68366-0.16113 2.7083-0.18261 2.8606-0.0303 0.13308 0.13307 0.13044 0.53181-4e-3 0.64012-0.0582 0.0468-0.63923 0.10199-1.2912 0.12261-0.89504 0.0283-1.2527 0.0728-1.4605 0.18143l-0.27516 0.14392v1.424c0 1.616 4e-3 1.6266 0.67858 1.782 0.48706 0.11223 3.4783 0.11781 4.0596 8e-3 0.71869-0.13629 0.88816-0.24978 0.91845-0.61503l0.0263-0.3169h-0.96184c-0.63521 0-0.99635-0.0345-1.0634-0.1016-0.13124-0.13124-0.13124-0.59689 0-0.72813 0.16201-0.16202 3.0621-0.14129 3.1983 0.0229 0.0703 0.0847 0.0939 0.3805 0.0739 0.92592-0.0276 0.75241-0.0446 0.81733-0.27787 1.0606-0.13664 0.14254-0.46049 0.3441-0.71967 0.44791-0.4449 0.1782-0.60836 0.18979-2.9266 0.20757-1.7648 0.0135-2.5744-0.0115-2.8787-0.0889zm9.1953-0.0533c-0.67829-0.18142-1.1585-0.48722-1.2842-0.81772-0.0437-0.11487-0.0794-0.63889-0.0794-1.1645 0-0.84934 0.0212-0.98763 0.1905-1.2433 0.27276-0.41191 0.9622-0.72014 1.8863-0.84332 1.0314-0.13748 3.3934-0.0596 4.0126 0.13226 1.0112 0.31336 1.1072 0.49016 1.1072 2.039v1.1584l-0.28476 0.26856c-0.52536 0.49548-0.96959 0.58446-3.0596 0.61282-1.6396 0.0223-1.9376 5e-3 -2.4887-0.14217zm4.2456-0.86696 0.3175-0.13995v-1.9646l-0.30482-0.12736c-0.24584-0.10272-0.64604-0.12236-2.0684-0.10151-1.6386 0.024-1.7805 0.0385-2.0024 0.20407-0.23098 0.17239-0.23957 0.20616-0.26287 1.0333-0.0238 0.8442-0.0212 0.85696 0.20148 1.0029 0.34217 0.22419 0.78947 0.27183 2.3626 0.25163 1.1235-0.0144 1.509-0.0492 1.7568-0.15844zm2.83 0.93091c-0.13161-0.0964-0.14253-0.33306-0.12202-2.6458l0.0225-2.54h3.3867c3.6856 0 3.9982 0.034 4.5699 0.49644 0.23316 0.18864 0.25432 0.25253 0.28502 0.86035 0.0443 0.87763-0.0766 1.2553-0.48933 1.5285-0.64328 0.4257-1.0248 0.47693-3.8787 0.5208l-2.6458 0.0407v0.83483c0 0.73872-0.0189 0.84492-0.16377 0.92247-0.22556 0.12072-0.78922 0.11009-0.96441-0.0182zm6.6043-2.909c0.21482-0.16051 0.23887-0.22869 0.23887-0.67734 0-0.48548-8e-3 -0.50283-0.29634-0.6469-0.2625-0.13113-0.58876-0.14805-2.8575-0.14816l-2.5612-1.3e-4v1.7024l2.6186-0.0257c2.5103-0.0246 2.6285-0.0331 2.8575-0.20415zm2.6203 2.9061c-0.13424-0.0982-0.14604-0.26126-0.12201-1.6867 0.0261-1.5487 0.0305-1.5823 0.23826-1.8065 0.32885-0.35495 0.88333-0.5477 1.8733-0.65121 0.8094-0.0846 0.92812-0.0794 1.1245 0.0492 0.14902 0.0977 0.21953 0.21935 0.21953 0.37896 0 0.3771-0.13356 0.43831-0.95637 0.43831-0.55956 0-0.81639 0.0373-0.99907 0.14526l-0.2459 0.14525v1.4604c0 1.3572-0.0116 1.4666-0.16376 1.5481-0.22765 0.12184-0.7898 0.10964-0.96849-0.021zm5.6196-4e-3c-0.6588-0.12364-1.2424-0.43518-1.4053-0.75019-0.14333-0.27717-0.16732-2.2749-0.0304-2.5308 0.0486-0.0908 0.23323-0.25648 0.41035-0.3683 0.58192-0.36735 1.1432-0.48054 2.634-0.53124 2.1764-0.074 3.3654 0.14866 3.8097 0.71349 0.1518 0.19297 0.16967 0.34311 0.16967 1.4254 0 1.1722-7e-3 1.2177-0.21518 1.4655-0.11835 0.14065-0.43268 0.34188-0.6985 0.44717-0.44179 0.17499-0.63976 0.19319-2.3037 0.21181-1.1616 0.013-2.0195-0.017-2.3707-0.0829zm4.0641-0.95163 0.29621-0.173v-1.8532l-0.29633-0.15125c-0.26195-0.1337-0.50445-0.14844-2.0895-0.127-1.6702 0.0226-1.8096 0.0365-2.032 0.20247-0.23101 0.17239-0.23959 0.20614-0.26289 1.0333-0.0239 0.84676-0.0219 0.85654 0.20435 1.0048 0.33311 0.21826 0.83236 0.26981 2.4445 0.25241 1.2796-0.0138 1.4724-0.0347 1.7357-0.18852z"
    />
  </g>
</svg>
