<svg
  viewBox="0 0 17.188 17.197"
>
  <g transform="translate(-133.27 -174.7)">
    <path
      d="m141.61 191.87c5.1e-4 -0.0116 0.39178-1.088 0.86943-2.3918l0.86847-2.3707 1.3954-0.0423c1.526-0.0463 1.7386-0.11015 1.9909-0.59819 0.26644-0.51523 2.0715-5.6089 2.0715-5.8455 0-0.13936-0.0597-0.36879-0.13262-0.50984-0.22888-0.44261-0.50509-0.49713-2.5188-0.49713h-1.8102l-2.1779 5.9902c-1.1979 3.2946-2.2099 6.023-2.249 6.0631-0.16194 0.1661-2.0706-0.62979-2.9326-1.2229-0.57362-0.39467-1.5832-1.3747-2.0348-1.9753-1.2289-1.6344-1.8659-3.9552-1.6447-5.9925 0.1269-1.169 0.35701-1.9726 0.85708-2.9932 0.73074-1.4913 2.0094-2.8637 3.4202-3.6709 0.73474-0.42039 1.9946-0.8967 1.9946-0.75409 0 0.07-3.7243 10.386-4.2974 11.904-0.0322 0.0853 0.14769 0.10366 0.8306 0.0847l0.87173-0.0242 1.1579-3.175 1.1579-3.175 0.73229-0.0245c0.40276-0.0135 0.73229-0.01 0.73229 8e-3 0 0.0177-0.50006 1.4003-1.1112 3.0725-0.61119 1.6722-1.13 3.107-1.1529 3.1884-0.0377 0.13404 0.0395 0.14816 0.80883 0.14816h0.85046l0.16471-0.4445c0.68474-1.8478 2.0498-5.6505 2.0928-5.83 0.0767-0.31983-0.15717-0.80575-0.48347-1.0047-0.23715-0.14458-0.42679-0.17092-1.2328-0.17118-0.59814-1.7e-4 -0.9525-0.0328-0.9525-0.0877 0-0.0481 0.38616-1.153 0.85814-2.4553l0.85814-2.3679 0.72936 1e-3c2.0764 3e-3 4.2819 0.95518 5.8424 2.5219 1.0292 1.0333 1.7244 2.2131 2.1801 3.7 0.21972 0.71691 0.23362 0.85719 0.23486 2.3707 1e-3 1.3981-0.0229 1.6949-0.18341 2.2677-0.87852 3.1343-3.4181 5.5332-6.5669 6.2032-0.47105 0.10023-2.0926 0.17911-2.089 0.10162zm2.2004-5.9684c0-0.0346 0.42551-1.2347 0.94557-2.667l0.94558-2.6041h0.70542c0.39685 0 0.70543 0.0358 0.70543 0.0817 0 0.0449-0.38514 1.1403-0.85587 2.4342s-0.89356 2.4572-0.93962 2.5853c-0.0823 0.22888-0.0958 0.23283-0.79513 0.23283-0.39126 0-0.71138-0.0283-0.71138-0.0629z"
    />
  </g>
</svg>
