<svg
  viewBox="0 0 37.333 16.82"
>
  <g transform="translate(-118.84 -178.21)">
    <path
      d="m136.71 195.01c-2.7451-0.24724-6.7819-1.1249-9.7535-2.1206l-1.6962-0.56835-0.26531 0.15471c-1.2816 0.74737-2.1195 1.0063-3.271 1.0108-1.2637 5e-3 -2.1925-0.36665-2.6691-1.068-0.25341-0.37293-0.29106-1.127-0.0746-1.4936 0.45493-0.77014 1.8113-1.0536 3.5056-0.73259 0.39581 0.075 0.83655 0.15799 0.97942 0.18445 0.24895 0.0461 0.26916 0.0271 0.48593-0.45589 0.33636-0.7495 0.80083-2.0657 1.0808-3.0627 0.13631-0.48538 0.24784-0.8919 0.24784-0.90338 0-0.0115-0.27623-0.0825-0.61384-0.15775-0.33761-0.0753-0.79906-0.19712-1.0255-0.27073-0.40652-0.13219-0.41103-0.13758-0.36291-0.43409 0.0751-0.46277 0.14004-0.48735 0.87786-0.33226 1.0819 0.22742 1.1909 0.23505 1.3327 0.0932 0.0716-0.0716 0.13027-0.18278 0.13027-0.24696 0-0.0642 0.15447-0.66153 0.34327-1.3274 0.45757-1.614 1.0189-2.7672 1.7026-3.4981 1.4987-1.6021 3.8675-2.0684 5.0041-0.98512 0.49924 0.47584 0.68633 0.94485 0.68141 1.7082-0.0145 2.2568-1.9714 4.4771-4.5257 5.1352l-0.58563 0.15086-0.25669 0.84848c-0.60162 1.9887-0.87778 2.7583-1.27 3.5397-0.22877 0.45568-0.41594 0.85908-0.41594 0.89644 0 0.11933 3.1042 0.95513 4.9237 1.3257 3.6234 0.73795 6.2843 0.92824 12.03 0.86032 3.8138-0.0451 5.5243-0.1197 7.2181-0.31489 1.06-0.12215 3.2082-0.48414 4.3097-0.72623 1.2953-0.28469 1.2981-0.28431 1.368 0.18205 0.0317 0.2117 0.0355 0.40715 8e-3 0.43432-0.13133 0.13134-3.9671 0.97336-6.0802 1.3347-3.6625 0.6263-5.9421 0.82509-9.7657 0.85156-1.7695 0.0122-3.3888 7e-3 -3.5983-0.012zm-14.662-2.8246c0.49716-0.22563 0.88985-0.51458 0.8047-0.59213-0.0385-0.0351-0.32179-0.146-0.62952-0.2465-0.70185-0.22921-1.5894-0.25849-1.8888-0.0623-0.46229 0.3029-0.45573 0.68265 0.0162 0.93877 0.3415 0.18533 1.2503 0.16508 1.6974-0.0378zm7.3598-7.7836c1.0002-0.48367 1.9487-1.4068 2.393-2.329 0.51076-1.06 0.55063-1.8973 0.11498-2.4151-0.18429-0.21902-0.27437-0.2565-0.61654-0.2565-0.92884 0-1.5248 0.85798-2.2348 3.2173-0.4249 1.4119-0.57407 2.1167-0.44804 2.1167 0.0561 0 0.41218-0.15003 0.79138-0.33341zm13.822 6.911c-0.61543-0.17784-1.0348-0.41216-1.4123-0.78916l-0.35393-0.35346-0.61626 0.38351c-0.33895 0.21093-0.82738 0.45774-1.0854 0.54847-0.52868 0.18589-1.6013 0.28973-2.075 0.20087-0.39173-0.0735-1.0294-0.64233-1.1048-0.98553-0.03-0.13654-0.0718-0.24826-0.0929-0.24826s-0.23459 0.0994-0.47435 0.2209c-0.69366 0.35151-2.0009 0.80216-2.6911 0.92769-1.5853 0.28836-2.8479 0.0355-3.6876-0.73851-0.57689-0.53175-0.75459-0.92116-0.74737-1.6377 0.0153-1.5246 1.1572-2.8502 2.8147-3.2676 0.57527-0.14487 0.90077-0.17276 1.7357-0.1487 0.96238 0.0277 1.0572 0.0461 1.4933 0.28986 0.57192 0.31962 0.87978 0.82556 0.79322 1.3036-0.21905 1.2096-1.3522 1.8766-3.224 1.8977l-0.86986 0.01-6.8e-4 0.25633c-3e-3 1.1004 2.0134 1.1739 4.1207 0.15028 0.33427-0.16237 0.66439-0.35838 0.73359-0.43558s0.28203-0.67376 0.47296-1.3257c0.19092-0.65194 0.39873-1.3568 0.4618-1.5663l0.11467-0.381 0.49793-0.0686c0.51283-0.0706 2.032-0.0343 2.1169 0.0506 0.0263 0.0263-0.18883 0.88869-0.47795 1.9165-0.50219 1.7853-0.51952 1.8782-0.38777 2.0793 0.20709 0.31606 0.48282 0.34548 0.99941 0.10662 0.73587-0.34023 0.84908-0.47168 0.91932-1.0674 0.17934-1.5209 1.6453-2.8914 3.3707-3.151 0.34319-0.0516 0.80039-0.0692 1.016-0.039 0.49695 0.0696 1.1783 0.28697 1.2468 0.39779 0.0569 0.092-0.1185 0.82903-0.22604 0.95003-0.0365 0.041-0.26538-0.0252-0.51214-0.14817-0.54983-0.27399-0.60555-0.27443-1.0594-8e-3 -1.028 0.60246-1.4589 2.8946-0.62352 3.3172 0.49875 0.25227 1.2308 0.0627 2.0337-0.52667 0.37471-0.27506 0.41305-0.3383 0.53652-0.88506 0.24592-1.089 0.75957-1.8478 1.6601-2.4524 0.67087-0.45044 1.1358-0.61091 1.9155-0.66109 0.78807-0.0507 1.1468 0.0403 1.6104 0.40874l0.31711 0.25201 0.22604-0.53758 1.1041 0.0448c0.60725 0.0246 1.1272 0.0679 1.1555 0.0962 0.0283 0.0283-0.18667 0.89584-0.47765 1.9279-0.42896 1.5215-0.51216 1.9136-0.43972 2.0726 0.12805 0.28104 0.46674 0.33746 0.96032 0.15997 0.4912-0.17664 0.59135-0.11916 0.60626 0.34794 0.01 0.30504-0.0129 0.3326-0.51599 0.62712-0.70538 0.41297-1.2873 0.58972-1.9416 0.58972-0.66052 0-1.0087-0.13517-1.3503-0.52423l-0.25941-0.29545-0.53069 0.32088c-0.93818 0.56728-1.9893 0.63565-2.8201 0.18344-0.3919-0.2133-0.79557-0.59339-0.97976-0.92252-0.0758-0.13542-0.10364-0.12959-0.34295 0.0718-1.0182 0.85677-2.6788 1.3364-3.6527 1.055zm7.5062-1.2978c0.43166-0.20483 0.68611-0.59779 1.0179-1.572 0.35806-1.0514 0.35294-1.5078-0.0205-1.829-0.27113-0.23321-0.57674-0.21021-0.97499 0.0734-0.51126 0.36405-1.0321 1.6213-1.0443 2.5209-7e-3 0.48677 0.0146 0.555 0.23029 0.74086 0.28039 0.24162 0.4001 0.25157 0.7916 0.0658zm-17.686-2.0795c0.4456-0.20795 0.78197-0.7337 0.78197-1.2222 0-0.42478-0.1162-0.53866-0.54964-0.53866-0.29622 0-0.39717 0.0521-0.69646 0.35983-0.43198 0.44409-0.88063 1.4764-0.69247 1.5933 0.16429 0.1021 0.72586 9e-3 1.1566-0.19227zm5.5501-3.6134c-1.0436-0.48946-0.68908-1.797 0.5416-1.9977 0.43709-0.0713 1.1938 0.13053 1.5058 0.40163 0.45254 0.39324 0.35426 1.1778-0.18967 1.514-0.42961 0.26552-1.3774 0.30743-1.8578 0.0821z"
    />
  </g>
</svg>
