<svg
  viewBox="0 0 35.64 16.882"
>
  <g transform="translate(-130 -150.27)">
    <path
      d="m136.33 166.94c-2.2951-0.59157-4.3548-2.2424-5.4085-4.335-0.59762-1.1868-0.83899-2.1138-0.9094-3.4927-0.12867-2.5202 0.77845-4.8181 2.5823-6.5415 1.0721-1.0242 2.1029-1.6276 3.5239-2.0626 0.71059-0.21753 0.86767-0.23362 2.3283-0.2384 1.7141-6e-3 2.0038 0.0434 3.3227 0.56258 1.2946 0.50957 2.71 1.6177 3.6006 2.819 0.5374 0.72487 1.0904 1.8707 1.34 2.7762 0.26383 0.95746 0.36487 2.677 0.21031 3.5794-0.47984 2.8014-2.1313 5.0579-4.6117 6.3015-1.2954 0.64947-2.2037 0.8483-3.8516 0.84311-1.119-4e-3 -1.4465-0.0361-2.127-0.21148zm3.81-1.397c1.4211-0.33994 2.8921-1.2635 3.8204-2.3987 0.52742-0.64493 1.2074-2.0196 1.3872-2.8043 0.0747-0.32597 0.15837-0.907 0.186-1.2912l0.0502-0.6985h-4.9358v0.59267h4.318v0.32512c0 0.52477-0.31199 1.6125-0.67174 2.3419-1.1473 2.3263-3.6171 3.7508-6.1863 3.5682-0.93171-0.0662-1.5758-0.23633-2.413-0.63727-2.416-1.157-3.7932-3.4837-3.662-6.1867 0.16186-3.3346 2.8507-5.9978 6.1802-6.1211l0.57083-0.0211 6.7e-4 -0.27517 6.8e-4 -0.27517h-0.51157c-1.6869 0-3.6009 0.86658-4.85 2.1958-1.3317 1.4171-1.9337 2.8996-1.9448 4.7892-6e-3 1.0534 0.10127 1.6582 0.46197 2.6 0.66191 1.7282 2.2495 3.3474 3.8996 3.9773 1.3863 0.52916 2.9393 0.6444 4.2994 0.31903zm0.42334-3.5097v-0.29633h-1.778v-6.604h-0.59267v7.1967h2.3707zm-4.1672-5.2572c0.1111-0.0728 0.25891-0.26858 0.32848-0.43507 0.10853-0.25975 0.1101-0.34574 0.0111-0.6059-0.2628-0.69047-1.0298-0.86386-1.5445-0.34916-0.46538 0.46538-0.29163 1.2612 0.33447 1.532 0.21523 0.0931 0.61005 0.0287 0.87048-0.14191zm23.81 6.1991c-0.57908-0.16761-0.91754-0.3698-1.3605-0.81275-0.78129-0.78128-1.1804-1.9552-1.1783-3.466 1e-3 -1.0318 0.14783-1.752 0.49653-2.4427 0.27144-0.53766 0.98486-1.2642 1.4981-1.5256 1.5984-0.8142 3.9344-0.61055 5.1026 0.44483 0.38854 0.35102 0.73471 1.005 0.8191 1.5473l0.056 0.35983-2.4279-4e-3 -0.15338-0.3328c-0.40996-0.8895-1.6079-1.0022-2.3297-0.2192-0.45876 0.4977-0.64 1.1108-0.64 2.165 0 1.3266 0.39086 2.1984 1.1652 2.5988 0.30081 0.15556 1.0533 0.16836 1.3364 0.0227 0.39942-0.20539 0.75303-0.62725 0.87771-1.0471 0.19833-0.66785 0.22611-0.64311-0.72199-0.64311h-0.84666v-1.524h3.7253v4.826h-1.8627v-0.88103l-0.3175 0.30933c-0.51899 0.50566-1.0294 0.6865-2.0108 0.71252-0.51207 0.0136-0.99724-0.0211-1.2277-0.0878zm-9.0593-4.2863v-4.2333h2.286v6.5193h3.81v1.9473h-6.096z"
    />
  </g>
</svg>
