<svg
  viewBox="0 0 38.1 8.213"
>
  <g transform="translate(-125.19 -171.57)">
    <path
      d="m125.19 177.83v-1.9473h3.8947v3.8947h-3.8947zm4.2333 0v-1.9473h3.9793v3.8947h-3.9793zm14.871 0.30451c-0.69797-0.2599-1.0913-0.8708-1.0908-1.6943 6.7e-4 -1.2025 0.68464-1.9062 1.8569-1.9104 0.28801-1e-3 0.62139 0.0353 0.74084 0.0807 0.19335 0.0735 0.21718 0.12924 0.21718 0.508 0 0.46117-0.0212 0.47989-0.33867 0.29843-0.2781-0.15898-0.70975-0.15837-1.0188 1e-3 -0.70163 0.36283-0.66991 1.6526 0.048 1.9526 0.38308 0.16007 0.53398 0.1521 0.92843-0.049 0.18267-0.0931 0.34313-0.16933 0.35656-0.16933 0.0134 0 0.0244 0.18916 0.0244 0.42035 0 0.34502-0.033 0.43802-0.18422 0.51895-0.29162 0.15607-1.1698 0.18033-1.5398 0.0425zm5.4202 5.1e-4c-0.70361-0.26208-1.0678-0.85699-1.0678-1.7444 0-1.2015 0.66947-1.865 1.8774-1.8608 1.0938 4e-3 1.6854 0.54992 1.7454 1.6109 0.0527 0.93247-0.23136 1.5519-0.85832 1.8718-0.44518 0.22711-1.2583 0.28583-1.6967 0.12253zm1.3645-0.92449c0.22392-0.22392 0.32552-0.72717 0.23944-1.186-0.13276-0.70764-0.88587-0.96937-1.4189-0.49311-0.23515 0.21012-0.27435 0.30617-0.30233 0.74084-0.0359 0.55759 0.15597 0.98755 0.50689 1.1359 0.28753 0.12156 0.74932 0.028 0.9749-0.19763zm1.8186 0.95315c-0.26622-0.0818-0.27516-0.0994-0.27516-0.54363v-0.4591l0.35983 0.16333c0.59064 0.2681 1.0795 0.20823 1.0795-0.13221 0-0.15834-0.10491-0.24605-0.54042-0.45182-0.68945-0.32575-0.89891-0.58477-0.89891-1.1116 0-0.70406 0.48051-1.1015 1.3293-1.0995 0.81543 2e-3 0.87204 0.0361 0.87204 0.52659 0 0.39973-0.0106 0.42011-0.1905 0.36541-0.77408-0.23537-1.1116-0.18986-1.0643 0.14348 0.0192 0.135 0.17597 0.27006 0.53458 0.46048 0.66473 0.35297 0.88954 0.61879 0.88954 1.0518 0 0.44445-0.19328 0.80199-0.52677 0.97445-0.32437 0.16773-1.1872 0.2295-1.5687 0.1123zm3.5995 5e-3c-0.7893-0.23766-1.2096-0.85991-1.2027-1.7808 5e-3 -0.7188 0.26407-1.2758 0.7385-1.5897 0.27352-0.181 0.46488-0.23249 0.95634-0.25731 0.77268-0.039 1.1314 0.0785 1.5063 0.4935 0.47377 0.52441 0.59063 1.1962 0.3494 2.0085-0.27174 0.91504-1.3425 1.4285-2.3478 1.1258zm1.2634-0.96959c0.38994-0.44865 0.32612-1.3895-0.11795-1.7388-0.23462-0.18455-0.69691-0.22472-0.96081-0.0835-0.4265 0.22825-0.59178 1.248-0.27209 1.6787 0.35951 0.48435 0.99587 0.55198 1.3508 0.14355zm4.3446 0.94564c-0.39341-0.19658-0.50772-0.58669-0.50787-1.7332l-1.3e-4 -1.0372h-1.1853v2.8028l-0.889-0.0512-0.0233-1.3758-0.0233-1.3758h-0.2519c-0.24211 0-0.2519-0.0148-0.2519-0.381 0-0.36546 0.0102-0.381 0.24979-0.381 0.24306 0 0.25138-0.014 0.30851-0.51892 0.0947-0.83734 0.66787-1.3215 1.4737-1.2449 0.2894 0.0275 0.29694 0.0377 0.32233 0.43507l0.026 0.40691-0.28266-0.053c-0.35832-0.0672-0.5689 0.14179-0.63433 0.62963l-0.0463 0.34524h1.2076v-0.40993c0-0.40663 3e-3 -0.41077 0.34748-0.51404 0.19112-0.0573 0.40067-0.12452 0.46567-0.14946 0.0938-0.036 0.11819 0.0701 0.11819 0.51404v0.55939h0.762v0.762h-0.762v0.97548c0 0.94449 6e-3 0.97839 0.20095 1.067 0.14587 0.0665 0.25031 0.0651 0.381-5e-3 0.17227-0.0922 0.18005-0.0784 0.18005 0.32008 0 0.36029-0.0257 0.42333-0.1905 0.46749-0.3113 0.0834-0.7685 0.0582-0.99484-0.0549zm-26.396-2.4529 0.0224-2.4765 1.2785-0.0488 0.66395 1.6754c0.36518 0.92148 0.68904 1.704 0.71969 1.7389 0.0307 0.0349 0.37297-0.71754 0.76072-1.6722l0.70499-1.7357h1.2485v4.9953h-0.93133l-1e-3 -1.7992-1e-3 -1.7992-0.70813 1.778-0.70815 1.778h-0.71634l-1.3782-3.4587-0.0229 1.7505-0.0229 1.7505h-0.93045zm6.0761 0.6985v-1.778h0.93134v3.556h-0.93134zm4.7413 0v-1.778h0.46566c0.42449 0 0.46626 0.0168 0.47235 0.1905 4e-3 0.10477 0.0262 0.14207 0.05 0.0829 0.0689-0.17127 0.5009-0.35805 0.82812-0.35805h0.30054v0.9281l-0.35983-0.0487c-0.31394-0.0425-0.38683-0.0199-0.5715 0.17752-0.20147 0.21535-0.213 0.28304-0.23923 1.405l-0.0276 1.1788h-0.91853zm-21.336-2.8363v-1.9897h3.8947v3.9793h-3.8947zm4.2333 0v-1.9897h3.9793v3.9793h-3.9793zm12.392 0.3321c-0.30708-0.46866 0.21715-0.98653 0.71635-0.70767 0.27527 0.15378 0.35113 0.57808 0.14093 0.78828-0.22157 0.22157-0.68802 0.17771-0.85728-0.0806z"
    />
  </g>
</svg>
