<svg
  viewBox="0 0 38.204 5.5813"
>
  <g transform="translate(-126.96 -150.83)">
    <path
      d="m127.66 156.25c-0.48656-0.22087-0.69953-0.58892-0.69994-1.2096l-3.1e-4 -0.48683h1.5143l0.026 0.35983c0.0242 0.33435 0.0434 0.35984 0.2708 0.35984 0.13674 0 0.28419-0.0625 0.33409-0.1416 0.16806-0.26643-0.0632-0.5371-0.80512-0.94212-0.38779-0.21171-0.81937-0.50466-0.95907-0.651-0.24709-0.25883-0.254-0.2888-0.254-1.1016 0-0.80209 0.01-0.84557 0.23988-1.0859 0.60022-0.62651 2.308-0.68444 2.9615-0.10047 0.23904 0.21358 0.2664 0.29067 0.29731 0.83781l0.0341 0.60258h-1.4584v-0.28596c0-0.45309-0.40121-0.6417-0.62134-0.29211-0.17475 0.2775 0.0554 0.51881 0.91522 0.95976 0.69193 0.35483 0.85812 0.48054 1.0358 0.7835 0.18994 0.3239 0.20857 0.43515 0.18181 1.086-0.0292 0.71139-0.0357 0.73054-0.33932 1.0088-0.38717 0.35481-0.77616 0.46478-1.6378 0.46301-0.48475-9.9e-4 -0.77914-0.0476-1.0354-0.16393zm17.969 0.068c-0.56507-0.20596-0.889-0.70904-0.889-1.3806v-0.38372h0.762c0.76156 0 0.762 8e-5 0.762 0.21723 0 0.50724 0.47188 0.75932 0.68299 0.36485 0.15082-0.28181-0.0577-0.56319-0.63245-0.85331-0.74699-0.37707-1.1484-0.66315-1.2756-0.90897-0.32966-0.63751-0.21503-1.7943 0.21355-2.155 0.50959-0.42879 1.8247-0.50076 2.5687-0.14057 0.45253 0.21906 0.64408 0.57041 0.64408 1.1814v0.4317h-1.4393v-0.29335c0-0.20852-0.0499-0.32006-0.17254-0.38569-0.20831-0.11149-0.46993-0.042-0.54123 0.14386-0.0947 0.24674 0.19418 0.52123 0.97045 0.92215 0.49741 0.25691 0.84715 0.50146 0.99583 0.69632 0.20876 0.27362 0.22915 0.36629 0.22915 1.0414 0 0.61569-0.0295 0.78052-0.17413 0.97454-0.31474 0.42209-0.75126 0.58175-1.6462 0.60212-0.44238 0.0101-0.91863-0.0234-1.0583-0.0743zm5.4641-1e-3c-0.41779-0.11987-0.72291-0.36036-0.88166-0.69489-0.11568-0.24379-0.13743-0.63268-0.13743-2.457v-2.1674h1.524v1.9952c0 1.2134 0.0343 2.0594 0.0876 2.159 0.0497 0.0929 0.17663 0.16377 0.29336 0.16377 0.11672 0 0.24362-0.0708 0.29335-0.16377 0.0533-0.0996 0.0877-0.94555 0.0877-2.159v-1.9952h1.524v2.1194c0 1.5985-0.0284 2.1873-0.11549 2.3958-0.14724 0.3524-0.56304 0.70301-0.96664 0.8151-0.38869 0.10795-1.315 0.10198-1.7088-0.011zm11.475 9e-3c-0.47559-0.11856-0.87227-0.45057-0.98238-0.82223-0.0592-0.19987-0.0834-0.9562-0.0662-2.0662 0.025-1.6095 0.0412-1.7702 0.20146-1.9897 0.30054-0.41173 0.82913-0.62043 1.5582-0.61517 1.2413 9e-3 1.7812 0.42195 1.7812 1.3626v0.49548h-1.4393v-0.33446c0-0.37823-0.18655-0.55426-0.44231-0.41738-0.13589 0.0727-0.15035 0.23445-0.15035 1.6804 0 1.5381 7e-3 1.6021 0.17339 1.655 0.28571 0.0907 0.41927-0.10184 0.41927-0.60433 0-0.39885-0.021-0.4553-0.16933-0.4553-0.14881 0-0.16933-0.0564-0.16933-0.46566v-0.46567h1.8823l-0.0333 1.1399c-0.0377 1.2906-0.11294 1.4801-0.70415 1.7735-0.37845 0.18785-1.3521 0.25545-1.859 0.12907zm-30.612-0.19915c0-0.11552 0.41807-2.5953 0.7256-4.3039l0.14858-0.8255h1.17c1.1443 0 1.1709 4e-3 1.2122 0.1905 0.0233 0.10477 0.21523 1.2002 0.42662 2.4342 0.21139 1.234 0.40373 2.3308 0.42742 2.4374 0.0428 0.19231 0.0374 0.19354-0.7425 0.16933l-0.78559-0.0244-0.24895-1.9242c-0.13692-1.0583-0.267-1.9061-0.28905-1.8841-0.0337 0.0337-0.26524 1.6519-0.48736 3.406l-0.0563 0.4445h-0.75035c-0.59098 0-0.75034-0.0255-0.75034-0.11997zm5.532-1.5945c0.0306-0.94297 0.0557-2.1241 0.0558-2.6247l2.2e-4 -0.91017h1.1837c1.159 0 1.1846 4e-3 1.2248 0.1905 0.0226 0.10477 0.12243 0.74295 0.22189 1.4182 0.0995 0.67521 0.18854 1.2361 0.19796 1.2463 9e-3 0.0103 0.10429-0.54218 0.21083-1.2277s0.21339-1.3321 0.23745-1.4368c0.0428-0.18631 0.0696-0.1905 1.2199-0.1905h1.1762v0.96005c0 0.52803 0.0251 1.7091 0.0557 2.6247l0.0558 1.6646h-1.4662l-0.016-3.7677-0.1921 1.016c-0.10565 0.5588-0.26277 1.4078-0.34915 1.8868l-0.15706 0.87077-1.5275-0.0482-0.70788-3.81-7e-3 1.9262-7e-3 1.9262h-1.4662zm18.175-0.91016v-2.6247h1.6955l0.20846 0.4445c0.11466 0.24447 0.42018 0.92075 0.67893 1.5028l0.47047 1.0583-0.0254-1.5028-0.0254-1.5028h1.4848v5.2493h-1.7549l-0.23712-0.52916c-0.13043-0.29105-0.40233-0.88305-0.60423-1.3156-0.20191-0.43252-0.3671-0.8208-0.3671-0.86284 0-0.042-0.0443-0.10378-0.0984-0.13722-0.074-0.0457-0.0854 0.29894-0.0462 1.392l0.0522 1.4528h-1.4316z"
    />
  </g>
</svg>
